<mxfile host="app.diagrams.net" modified="2023-05-02T17:45:43.795Z" agent="Mozilla/5.0 (Windows NT 10.0; Win64; x64) AppleWebKit/537.36 (KHTML, like Gecko) Chrome/112.0.0.0 Safari/537.36" version="21.2.4" etag="krClMLDSvyGAtH_uP0eO" type="github">
  <diagram name="Sayfa -1" id="ifqLP5I6R_8OgM89c2tv">
    <mxGraphModel>
      <root>
        <mxCell id="0" />
        <mxCell id="1" parent="0" />
      </root>
    </mxGraphModel>
  </diagram>
</mxfile>
